<svg xmlns="http://www.w3.org/2000/svg" xmlns:xlink="http://www.w3.org/1999/xlink" width="50" height="16"><defs><path id="a" d="m14.7.3-4.2 10.5-1.7-9C8.6.8 7.8.2 6.9.2H.1L0 .7C1.4 1 3 1.5 4 2c.6.3.8.6 1 1.4l3.2 12.4h4.3L19 .3h-4.3zm6 0-3.3 15.5h4L24.7.3h-4zm23.2 4.2 1.2 5.8h-3.4l2.2-5.8zM43.3.3c-.8 0-1.4.4-1.7 1.1l-6.1 14.3h4.2l.8-2.3h5.2l.5 2.3H50L46.7.3h-3.4zM25.9 5.1c0 2.2 2 3.5 3.5 4.2 1.6.8 2.1 1.2 2.1 1.9 0 1-1.3 1.5-2.4 1.5-2 0-3.2-.5-4.1-1l-.7 3.4c.9.4 2.7.8 4.5.8 4.2 0 7-2.1 7-5.3 0-4.1-5.7-4.3-5.7-6.1 0-.6.5-1.1 1.7-1.3.6-.1 2.2-.1 4 .7l.7-3.3c-1-.3-2.2-.7-3.8-.7-4 .1-6.8 2.2-6.8 5.2"/></defs><clipPath id="b"><use xlink:href="#a"/></clipPath><linearGradient id="c" x1=".009" x2="49.995" y1="7.988" y2="7.988" gradientUnits="userSpaceOnUse"><stop offset="0" stop-color="#241f5d"/><stop offset="1" stop-color="#034ea1"/></linearGradient><path fill="url(#c)" d="M0 0h50v16H0z" clip-path="url(#b)"/></svg>